# xmcd CD database file
#
# Track frame offsets:
#	150
#	16220
#	33790
#	48107
#	61175
#	72257
#	91660
#	102657
#	119877
#	139492
#	155742
#	173327
#	190325
#	202997
#	222762
#	246357
#	264935
#	284980
#
# Disc length: 4019 seconds
#
# Revision: 0
# Processed by: cddbd v1.5.1PL0 Copyright (c) Steve Scherf et al.
# Submitted via: CDex 1.51
#
DISCID=090fb112
DTITLE=Various Artist - The Best Of Country
DYEAR=1900
DGENRE=Country
TTITLE0=Kenny Rogers - If Only Heart Had A Voice
TTITLE1=Billy Ray Cyrus - Storm In The Heartland
TTITLE2=John Denver - Take Me Home Country Roads
TTITLE3=George Strait - Blue Clear Sky
TTITLE4=Alan Jackson - She's Got Rythm
TTITLE5=A Ha - Crying In The Rain
TTITLE6=Brother Four - Yellow Bird
TTITLE7=Garth Brooks - Where Have All The Flowers
TTITLE8=Richard Elliot - If Tomorrow Never Comes
TTITLE9=Shania Twain - You're Still The One
TTITLE10=John Michael Montgomery - Friends
TTITLE11=Tim McGraw - It's Your Love
TTITLE12=Le Ann Rimes - Blue
TTITLE13=Trisha Yearwood - How Do I Live
TTITLE14=John Denver - Back Home Again
TTITLE15=Shania Twain - Any Man Of Mine
TTITLE16=Paula Cole - Where Have All The Cowboys Gone
TTITLE17=Le Ann Rimes - You Light Up My Live
EXTD=
EXTT0=
EXTT1=
EXTT2=
EXTT3=
EXTT4=
EXTT5=
EXTT6=
EXTT7=
EXTT8=
EXTT9=
EXTT10=
EXTT11=
EXTT12=
EXTT13=
EXTT14=
EXTT15=
EXTT16=
EXTT17=
PLAYORDER=
